<svg width="18" height="17" viewBox="0 0 18 17" fill="none" xmlns="http://www.w3.org/2000/svg">
<g clip-path="url(#clip0_2_2288)">
<path d="M7.08333 6.37492C6.69611 6.37492 6.33958 6.46936 6.01375 6.65825C5.68792 6.84714 5.43056 7.1045 5.24167 7.43034C5.05278 7.75617 4.95833 8.1127 4.95833 8.49992C4.95833 8.88714 5.05278 9.24367 5.24167 9.5695C5.43056 9.89534 5.68792 10.1527 6.01375 10.3416C6.33958 10.5305 6.69611 10.6249 7.08333 10.6249C7.47056 10.6249 7.82708 10.5305 8.15292 10.3416C8.47875 10.1527 8.73611 9.89534 8.925 9.5695C9.11389 9.24367 9.20833 8.88714 9.20833 8.49992C9.20833 8.1127 9.11389 7.75617 8.925 7.43034C8.73611 7.1045 8.47875 6.84714 8.15292 6.65825C7.82708 6.46936 7.47056 6.37492 7.08333 6.37492ZM7.08333 4.95825C7.72556 4.95825 8.31819 5.11645 8.86125 5.43283C9.40431 5.74922 9.83403 6.17895 10.1504 6.722C10.4668 7.26506 10.625 7.8577 10.625 8.49992C10.625 9.14214 10.4668 9.73478 10.1504 10.2778C9.83403 10.8209 9.40431 11.2506 8.86125 11.567C8.31819 11.8834 7.72556 12.0416 7.08333 12.0416C6.44111 12.0416 5.84847 11.8834 5.30542 11.567C4.76236 11.2506 4.33264 10.8209 4.01625 10.2778C3.69986 9.73478 3.54167 9.14214 3.54167 8.49992C3.54167 7.8577 3.69986 7.26506 4.01625 6.722C4.33264 6.17895 4.76236 5.74922 5.30542 5.43283C5.84847 5.11645 6.44111 4.95825 7.08333 4.95825ZM11.6875 4.77409C11.6875 5.01964 11.6001 5.22978 11.4254 5.4045C11.2507 5.57922 11.0429 5.66658 10.8021 5.66658C10.5613 5.66658 10.3535 5.57922 10.1788 5.4045C10.004 5.22978 9.91667 5.022 9.91667 4.78117C9.91667 4.54033 10.004 4.33256 10.1788 4.15784C10.3535 3.98311 10.5613 3.89575 10.8021 3.89575C11.0429 3.89575 11.2507 3.98311 11.4254 4.15784C11.6001 4.33256 11.6875 4.53797 11.6875 4.77409ZM7.08333 2.83325C6.21444 2.83325 5.62417 2.83561 5.3125 2.84033C5.00083 2.84506 4.64194 2.85686 4.23583 2.87575C3.72583 2.89464 3.30083 2.9702 2.96083 3.10242C2.66806 3.21575 2.41069 3.38339 2.18875 3.60534C1.96681 3.82728 1.79917 4.08464 1.68583 4.37742C1.55361 4.71742 1.47806 5.14242 1.45917 5.65242C1.44028 6.03964 1.42847 6.38672 1.42375 6.69367C1.41903 7.00061 1.41667 7.6027 1.41667 8.49992C1.41667 9.36881 1.41903 9.95908 1.42375 10.2708C1.42847 10.5824 1.44028 10.9413 1.45917 11.3474C1.47806 11.8574 1.55361 12.2824 1.68583 12.6224C1.79917 12.9152 1.96681 13.1726 2.18875 13.3945C2.41069 13.6164 2.66806 13.7794 2.96083 13.8833C3.30083 14.0249 3.72583 14.1052 4.23583 14.1241C4.62306 14.143 4.97014 14.1548 5.27708 14.1595C5.58403 14.1642 6.18611 14.1666 7.08333 14.1666C7.95222 14.1666 8.5425 14.1642 8.85417 14.1595C9.16583 14.1548 9.52472 14.143 9.93083 14.1241C10.4408 14.1052 10.8658 14.0296 11.2058 13.8974C11.4986 13.7841 11.756 13.6164 11.9779 13.3945C12.1999 13.1726 12.3628 12.9152 12.4667 12.6224C12.6083 12.2824 12.6886 11.8574 12.7075 11.3474C12.7264 10.9602 12.7382 10.6131 12.7429 10.3062C12.7476 9.99922 12.75 9.39714 12.75 8.49992C12.75 7.63103 12.7476 7.04075 12.7429 6.72908C12.7382 6.41742 12.7264 6.05853 12.7075 5.65242C12.6886 5.14242 12.6131 4.71742 12.4808 4.37742C12.3675 4.08464 12.1999 3.82728 11.9779 3.60534C11.756 3.38339 11.4986 3.21575 11.2058 3.10242C10.8658 2.9702 10.4408 2.89464 9.93083 2.87575C9.54361 2.85686 9.19653 2.84506 8.88958 2.84033C8.58264 2.83561 7.98056 2.83325 7.08333 2.83325ZM7.08333 1.41658C8.00889 1.41658 8.64167 1.42131 8.98167 1.43075C9.265 1.43075 9.605 1.4402 10.0017 1.45908C10.6628 1.48742 11.2342 1.59603 11.7158 1.78492C12.1975 1.97381 12.6178 2.2477 12.9767 2.60658C13.3356 2.96547 13.6094 3.38575 13.7983 3.86742C13.9872 4.34908 14.0958 4.92047 14.1242 5.58158C14.1431 5.9877 14.1525 6.3277 14.1525 6.60159C14.1619 6.96047 14.1667 7.59797 14.1667 8.51409C14.1667 9.4302 14.1619 10.0583 14.1525 10.3983C14.1525 10.6816 14.1431 11.0216 14.1242 11.4183C14.0958 12.0794 13.9872 12.6508 13.7983 13.1324C13.6094 13.6141 13.3356 14.0344 12.9767 14.3933C12.6178 14.7521 12.1975 15.026 11.7158 15.2149C11.2342 15.4038 10.6628 15.5124 10.0017 15.5408C9.59556 15.5596 9.25556 15.5691 8.98167 15.5691C8.62278 15.5785 7.98528 15.5833 7.06917 15.5833C6.15306 15.5833 5.525 15.5785 5.185 15.5691C4.90167 15.5691 4.56167 15.5596 4.165 15.5408C3.50389 15.5124 2.9325 15.4038 2.45083 15.2149C1.96917 15.026 1.54889 14.7521 1.19 14.3933C0.831111 14.0344 0.557222 13.6141 0.368333 13.1324C0.179444 12.6508 0.0708333 12.0794 0.0425 11.4183C0.0236111 11.0121 0.0141667 10.6721 0.0141667 10.3983C0.00472222 10.0394 0 9.40186 0 8.48575C0 7.56964 0.00472222 6.94158 0.0141667 6.60159C0.0141667 6.31825 0.0236111 5.97825 0.0425 5.58158C0.0708333 4.92047 0.179444 4.34908 0.368333 3.86742C0.557222 3.38575 0.831111 2.96547 1.19 2.60658C1.54889 2.2477 1.96917 1.97381 2.45083 1.78492C2.9325 1.59603 3.50389 1.48742 4.165 1.45908C4.57111 1.4402 4.91111 1.43075 5.185 1.43075C5.54389 1.42131 6.17667 1.41658 7.08333 1.41658Z" fill="black"/>
</g>
<defs>
<clipPath id="clip0_2_2288">
<rect width="17.48" height="17" fill="white" transform="matrix(1 0 0 -1 0 17)"/>
</clipPath>
</defs>
</svg>
