<svg width="18" height="17" viewBox="0 0 18 17" fill="none" xmlns="http://www.w3.org/2000/svg">
<g clip-path="url(#clip0_2_2282)">
<path d="M12.7358 8.20242C12.7075 7.62631 12.5989 7.07853 12.41 6.55908C12.2211 6.03964 11.9614 5.55797 11.6308 5.11409C11.4419 5.31242 11.2247 5.5202 10.9792 5.73742C10.2992 6.30408 9.51528 6.77631 8.6275 7.15409C8.75028 7.40909 8.85889 7.6452 8.95333 7.86242L9.02417 8.06075C10.0347 7.94742 11.135 7.97103 12.325 8.13159L12.7358 8.20242ZM6.09167 2.91825C6.22389 3.0977 6.36083 3.29603 6.5025 3.51325C6.96528 4.18381 7.38556 4.85436 7.76333 5.52492L8.00417 5.94992C8.83528 5.61936 9.55306 5.19909 10.1575 4.68909C10.3747 4.50964 10.5636 4.3302 10.7242 4.15075C10.2236 3.7352 9.66639 3.41408 9.0525 3.18742C8.41972 2.95131 7.76333 2.83325 7.08333 2.83325C6.75278 2.83325 6.42222 2.86158 6.09167 2.91825ZM1.60083 7.08325C2.04472 7.07381 2.52639 7.04547 3.04583 6.99825C4.24528 6.88492 5.39278 6.69131 6.48833 6.41742C6.09167 5.71853 5.6525 5.0102 5.17083 4.29242C4.96306 3.98075 4.76472 3.68797 4.57583 3.41408C3.83917 3.78242 3.20875 4.28533 2.68458 4.92284C2.16042 5.56034 1.79917 6.28047 1.60083 7.08325ZM2.6775 12.0699C2.98917 11.6166 3.36222 11.168 3.79667 10.7241C4.89222 9.6002 6.11056 8.82103 7.45167 8.38659L7.49417 8.37242C7.37139 8.11742 7.25806 7.88603 7.15417 7.67825C5.9075 8.03714 4.56167 8.2827 3.11667 8.41492C2.50278 8.47159 1.93611 8.49992 1.41667 8.49992C1.41667 9.17047 1.53 9.8127 1.75667 10.4266C1.97389 11.0216 2.28083 11.5694 2.6775 12.0699ZM9.20833 13.7558C9.13278 13.3402 9.03361 12.9058 8.91083 12.4524C8.67472 11.508 8.39139 10.5919 8.06083 9.70408C6.70083 10.1952 5.55806 10.9177 4.6325 11.8716C4.24528 12.2683 3.93361 12.6602 3.6975 13.0474C4.17917 13.4063 4.70806 13.6826 5.28417 13.8762C5.86028 14.0698 6.46 14.1666 7.08333 14.1666C7.82 14.1666 8.52833 14.0296 9.20833 13.7558ZM10.54 12.9908C11.0878 12.5658 11.5458 12.0581 11.9142 11.4678C12.2825 10.8776 12.5281 10.2377 12.6508 9.54825C12.3769 9.4727 12.0842 9.41603 11.7725 9.37825C10.9886 9.26492 10.2378 9.25547 9.52 9.34992C9.83167 10.2188 10.0961 11.1019 10.3133 11.9991C10.3983 12.3485 10.4739 12.6791 10.54 12.9908ZM7.08333 15.5833C6.12 15.5833 5.19917 15.3991 4.32083 15.0308C3.48028 14.6719 2.73181 14.1642 2.07542 13.5078C1.41903 12.8514 0.911389 12.103 0.5525 11.2624C0.184167 10.3841 0 9.46325 0 8.49992C0 7.53658 0.184167 6.61575 0.5525 5.73742C0.911389 4.89686 1.41903 4.14839 2.07542 3.492C2.73181 2.83561 3.48028 2.32797 4.32083 1.96908C5.19917 1.60075 6.12 1.41658 7.08333 1.41658C8.04667 1.41658 8.9675 1.60075 9.84583 1.96908C10.6864 2.32797 11.4349 2.83561 12.0913 3.492C12.7476 4.14839 13.2553 4.89686 13.6142 5.73742C13.9825 6.61575 14.1667 7.53658 14.1667 8.49992C14.1667 9.46325 13.9825 10.3841 13.6142 11.2624C13.2553 12.103 12.7476 12.8514 12.0913 13.5078C11.4349 14.1642 10.6864 14.6719 9.84583 15.0308C8.9675 15.3991 8.04667 15.5833 7.08333 15.5833Z" fill="black"/>
</g>
<defs>
<clipPath id="clip0_2_2282">
<rect width="17.48" height="17" fill="white" transform="matrix(1 0 0 -1 0 17)"/>
</clipPath>
</defs>
</svg>
