<svg width="15" height="14" viewBox="0 0 15 14" fill="none" xmlns="http://www.w3.org/2000/svg">
<g clip-path="url(#clip0_2_2127)">
<path d="M9.35667 9.60167L11.8533 12.0983L11.025 12.9267L8.52833 10.43C8.06944 10.7956 7.56778 11.0756 7.02333 11.27C6.44778 11.4722 5.85667 11.5733 5.25 11.5733C4.30111 11.5733 3.41833 11.3361 2.60167 10.8617C1.80833 10.395 1.18222 9.765 0.723333 8.97167C0.241111 8.155 0 7.27222 0 6.32333C0 5.37444 0.241111 4.49167 0.723333 3.675C1.18222 2.88167 1.80833 2.25556 2.60167 1.79667C3.41833 1.31444 4.30111 1.07333 5.25 1.07333C6.19889 1.07333 7.08167 1.31444 7.89833 1.79667C8.69167 2.25556 9.32167 2.88167 9.78833 3.675C10.2628 4.49167 10.5 5.37444 10.5 6.32333C10.5 6.93 10.3989 7.52111 10.1967 8.09667C10.0022 8.64111 9.72222 9.14278 9.35667 9.60167ZM8.17833 9.17C8.54389 8.79667 8.82778 8.36889 9.03 7.88667C9.23222 7.38889 9.33333 6.86778 9.33333 6.32333C9.33333 5.58444 9.14667 4.89611 8.77333 4.25833C8.41556 3.64389 7.92944 3.15778 7.315 2.8C6.67722 2.42667 5.98889 2.24 5.25 2.24C4.51111 2.24 3.82278 2.42667 3.185 2.8C2.57056 3.15778 2.08444 3.64389 1.72667 4.25833C1.35333 4.89611 1.16667 5.58444 1.16667 6.32333C1.16667 7.06222 1.35333 7.75056 1.72667 8.38833C2.08444 9.00278 2.57056 9.48889 3.185 9.84667C3.82278 10.22 4.51111 10.4067 5.25 10.4067C5.79444 10.4067 6.31556 10.3056 6.81333 10.1033C7.29556 9.90111 7.72333 9.61722 8.09667 9.25167L8.17833 9.17Z" fill="white"/>
</g>
<defs>
<clipPath id="clip0_2_2127">
<rect width="14.48" height="14" fill="white" transform="matrix(1 0 0 -1 0 14)"/>
</clipPath>
</defs>
</svg>
