<svg width="23" height="33" viewBox="0 0 23 33" fill="none" xmlns="http://www.w3.org/2000/svg">
<g clip-path="url(#clip0_2_1963)">
<path d="M9.98943 8.19086C11.6143 8.19086 13.1531 8.56016 14.6056 9.29875C15.9966 10.0127 17.1691 11.0006 18.1232 12.2623C19.0772 13.5241 19.6957 14.9367 19.9789 16.5C19.6957 18.0634 19.0772 19.4759 18.1232 20.7377C17.1691 21.9994 15.9966 22.9873 14.6056 23.7013C13.1531 24.4398 11.6143 24.8091 9.98943 24.8091C8.36453 24.8091 6.8258 24.4398 5.37324 23.7013C3.98223 22.9873 2.80972 21.9994 1.85571 20.7377C0.901696 19.4759 0.283126 18.0634 0 16.5C0.283126 14.9367 0.901696 13.5241 1.85571 12.2623C2.80972 11.0006 3.98223 10.0127 5.37324 9.29875C6.8258 8.56016 8.36453 8.19086 9.98943 8.19086ZM9.98943 22.9627C11.2697 22.9627 12.4883 22.6795 13.6455 22.1133C14.7656 21.5717 15.7166 20.8084 16.4983 19.8237C17.2799 18.8389 17.8123 17.731 18.0955 16.5C17.8123 15.269 17.2799 14.1611 16.4983 13.1763C15.7166 12.1916 14.7656 11.4284 13.6455 10.8867C12.4883 10.3205 11.2697 10.0373 9.98943 10.0373C8.70921 10.0373 7.49054 10.3205 6.33341 10.8867C5.21322 11.4284 4.26228 12.1916 3.48061 13.1763C2.69893 14.1611 2.16653 15.269 1.88341 16.5C2.16653 17.731 2.69893 18.8389 3.48061 19.8237C4.26228 20.8084 5.21322 21.5717 6.33341 22.1133C7.49054 22.6795 8.70921 22.9627 9.98943 22.9627ZM9.98943 20.6546C9.23853 20.6546 8.5461 20.4668 7.91215 20.0914C7.27819 19.7159 6.77349 19.2112 6.39804 18.5773C6.02259 17.9433 5.83486 17.2509 5.83486 16.5C5.83486 15.7491 6.02259 15.0567 6.39804 14.4227C6.77349 13.7888 7.27819 13.2841 7.91215 12.9086C8.5461 12.5332 9.23853 12.3454 9.98943 12.3454C10.7403 12.3454 11.4328 12.5332 12.0667 12.9086C12.7007 13.2841 13.2054 13.7888 13.5808 14.4227C13.9563 15.0567 14.144 15.7491 14.144 16.5C14.144 17.2509 13.9563 17.9433 13.5808 18.5773C13.2054 19.2112 12.7007 19.7159 12.0667 20.0914C11.4328 20.4668 10.7403 20.6546 9.98943 20.6546ZM9.98943 18.8081C10.408 18.8081 10.7926 18.7035 11.1435 18.4942C11.4943 18.2849 11.7744 18.0049 11.9836 17.6541C12.1929 17.3032 12.2975 16.9185 12.2975 16.5C12.2975 16.0815 12.1929 15.6968 11.9836 15.346C11.7744 14.9951 11.4943 14.7151 11.1435 14.5058C10.7926 14.2965 10.408 14.1919 9.98943 14.1919C9.5709 14.1919 9.18622 14.2965 8.83539 14.5058C8.48456 14.7151 8.20451 14.9951 7.99524 15.346C7.78597 15.6968 7.68134 16.0815 7.68134 16.5C7.68134 16.9185 7.78597 17.3032 7.99524 17.6541C8.20451 18.0049 8.48456 18.2849 8.83539 18.4942C9.18622 18.7035 9.5709 18.8081 9.98943 18.8081Z" fill="black"/>
</g>
<defs>
<clipPath id="clip0_2_1963">
<rect width="22.48" height="33" fill="white" transform="matrix(1 0 0 -1 0 33)"/>
</clipPath>
</defs>
</svg>
