<svg width="22" height="21" viewBox="0 0 22 21" fill="none" xmlns="http://www.w3.org/2000/svg">
<g clip-path="url(#clip0_2_2137)">
<path d="M12.6875 2.3975C13.5625 2.3975 14.3675 2.625 15.1025 3.08C15.8375 3.535 16.415 4.15333 16.835 4.935C17.2783 5.75167 17.5 6.65583 17.5 7.6475C17.5 9.00083 17.185 10.3017 16.555 11.55C16.0183 12.6117 15.2542 13.6325 14.2625 14.6125C13.4925 15.3825 12.5767 16.135 11.515 16.87C10.92 17.2783 10.1383 17.7683 9.17 18.34L8.75 18.585L8.33 18.34C7.36167 17.7683 6.58 17.2783 5.985 16.87C4.92333 16.135 4.0075 15.3825 3.2375 14.6125C2.24583 13.6325 1.48167 12.6117 0.945 11.55C0.315 10.3017 0 9.00083 0 7.6475C0 6.65583 0.221667 5.75167 0.665 4.935C1.085 4.15333 1.6625 3.535 2.3975 3.08C3.1325 2.625 3.9375 2.3975 4.8125 2.3975C5.57083 2.40917 6.32333 2.59583 7.07 2.9575C7.7 3.26083 8.26 3.6575 8.75 4.1475C9.24 3.6575 9.8 3.26083 10.43 2.9575C11.1767 2.58417 11.9292 2.3975 12.6875 2.3975ZM9.5725 16.065C10.3658 15.5633 11.0717 15.0675 11.69 14.5775C13.02 13.5158 14.0233 12.425 14.7 11.305C15.4 10.1383 15.75 8.925 15.75 7.665C15.75 6.98833 15.6158 6.38167 15.3475 5.845C15.0792 5.30833 14.7117 4.89417 14.245 4.6025C13.7783 4.31083 13.2592 4.15917 12.6875 4.1475C12.2208 4.1475 11.7483 4.26125 11.27 4.48875C10.7917 4.71625 10.3658 5.01667 9.9925 5.39L8.75 6.6325L7.5075 5.39C7.13417 5.01667 6.70833 4.71625 6.23 4.48875C5.75167 4.26125 5.27917 4.1475 4.8125 4.1475C4.2525 4.1475 3.73917 4.29917 3.2725 4.6025C2.80583 4.90583 2.43542 5.32292 2.16125 5.85375C1.88708 6.38458 1.75 6.98833 1.75 7.665C1.75 8.925 2.1 10.1383 2.8 11.305C3.47667 12.425 4.48 13.5158 5.81 14.5775C6.42833 15.0675 7.13417 15.5633 7.9275 16.065C8.1725 16.2167 8.44667 16.38 8.75 16.555C9.05333 16.38 9.3275 16.2167 9.5725 16.065Z" fill="black"/>
</g>
<defs>
<clipPath id="clip0_2_2137">
<rect width="21.48" height="21" fill="white" transform="matrix(1 0 0 -1 0 21)"/>
</clipPath>
</defs>
</svg>
